<?xml version="1.0" encoding="UTF-8" standalone="no"?>
<!-- Created with Inkscape (http://www.inkscape.org/) -->

<svg
      xmlns="http://www.w3.org/2000/svg"
      width="335"
      version="1.1"
      viewBox="0 0 335.881 355.809"
      xmlSpace="preserve"
    >
      <g transform="matrix(1.25 0 0 -1.25 -188.846 636.719)">
        <g
          fillOpacity="1"
          fillRule="nonzero"
          stroke="none"
          transform="scale(.1)"
        >
          <path
            fill="#b3b3b3"
            d="M2850 5093.75l-1339.23-471.3 211.62-1754.63 1129.03-620.54 1134.85 628.95 211.55 1754.56L2850 5093.75z"
          ></path>
          <path
            fill="#af2b2d"
            d="M4064.25 4529.39l-1217.38 415.13V2395.54l1020.22 564.62 197.16 1569.23z"
          ></path>
          <path
            fill="#df2e31"
            d="M1661.05 4521.89l181.34-1569.22 1004.47-557.13v2549.03l-1185.81-422.68z"
          ></path>
          <path
            fill="#f2f2f2"
            d="M3129.05 3676.7l-279.96 584.64-246.46-584.64h526.42zm106.74-245.83h-742.11l-166.02-415.26-308.82-5.71 828.04 1842.06 856.9-1842.06h-286.23l-181.76 420.97z"
          ></path>
          <path
            fill="#b3b3b3"
            d="M2846.87 4851.96l2.21-590.62 279.67-585.09H2847.5l-.63-245 388.9-.38 181.77-421.04 295.49-5.48-866.16 1847.61z"
          ></path>
        </g>
      </g>
    </svg>